<mxfile host="app.diagrams.net" agent="Mozilla/5.0 (Windows NT 10.0; Win64; x64) AppleWebKit/537.36 (KHTML, like Gecko) Chrome/135.0.0.0 Safari/537.36" version="26.2.10">
  <diagram name="Page-1" id="7e0a89b8-554c-2b80-1dc8-d5c74ca68de4">
    <mxGraphModel dx="1869" dy="929" grid="0" gridSize="10" guides="1" tooltips="1" connect="1" arrows="1" fold="1" page="1" pageScale="1" pageWidth="1100" pageHeight="850" background="none" math="0" shadow="0">
      <root>
        <mxCell id="0" />
        <mxCell id="1" parent="0" />
        <mxCell id="hXAr0mRC2oCInIYDE2fe-37" value="" style="rounded=1;whiteSpace=wrap;html=1;strokeWidth=2;fontSize=16;" vertex="1" parent="1">
          <mxGeometry x="384" y="106" width="552" height="850" as="geometry" />
        </mxCell>
        <mxCell id="hXAr0mRC2oCInIYDE2fe-11" style="edgeStyle=orthogonalEdgeStyle;rounded=0;orthogonalLoop=1;jettySize=auto;html=1;exitX=0;exitY=0.25;exitDx=0;exitDy=0;exitPerimeter=0;endArrow=box;endFill=0;strokeWidth=2;fontSize=16;" edge="1" parent="1" source="hXAr0mRC2oCInIYDE2fe-2">
          <mxGeometry relative="1" as="geometry">
            <mxPoint x="380" y="185.2" as="targetPoint" />
          </mxGeometry>
        </mxCell>
        <mxCell id="hXAr0mRC2oCInIYDE2fe-12" style="edgeStyle=orthogonalEdgeStyle;rounded=0;orthogonalLoop=1;jettySize=auto;html=1;exitX=0;exitY=0.75;exitDx=0;exitDy=0;exitPerimeter=0;endArrow=box;endFill=0;strokeWidth=2;fontSize=16;" edge="1" parent="1" source="hXAr0mRC2oCInIYDE2fe-2">
          <mxGeometry relative="1" as="geometry">
            <mxPoint x="380" y="215.2" as="targetPoint" />
          </mxGeometry>
        </mxCell>
        <mxCell id="hXAr0mRC2oCInIYDE2fe-2" value="" style="verticalLabelPosition=bottom;shadow=0;dashed=0;align=center;html=1;verticalAlign=top;shape=mxgraph.electrical.logic_gates.logic_gate;operation=and;strokeWidth=2;fontSize=16;" vertex="1" parent="1">
          <mxGeometry x="500" y="170" width="100" height="60" as="geometry" />
        </mxCell>
        <mxCell id="hXAr0mRC2oCInIYDE2fe-13" style="edgeStyle=orthogonalEdgeStyle;rounded=0;orthogonalLoop=1;jettySize=auto;html=1;exitX=0;exitY=0.25;exitDx=0;exitDy=0;exitPerimeter=0;endArrow=none;startFill=0;strokeWidth=2;fontSize=16;" edge="1" parent="1" source="hXAr0mRC2oCInIYDE2fe-3" target="hXAr0mRC2oCInIYDE2fe-2">
          <mxGeometry relative="1" as="geometry" />
        </mxCell>
        <mxCell id="hXAr0mRC2oCInIYDE2fe-14" style="edgeStyle=orthogonalEdgeStyle;rounded=0;orthogonalLoop=1;jettySize=auto;html=1;exitX=0;exitY=0.75;exitDx=0;exitDy=0;exitPerimeter=0;endArrow=box;endFill=0;strokeWidth=2;fontSize=16;" edge="1" parent="1" source="hXAr0mRC2oCInIYDE2fe-3">
          <mxGeometry relative="1" as="geometry">
            <mxPoint x="380" y="265.0689655172414" as="targetPoint" />
          </mxGeometry>
        </mxCell>
        <mxCell id="hXAr0mRC2oCInIYDE2fe-15" style="edgeStyle=orthogonalEdgeStyle;rounded=0;orthogonalLoop=1;jettySize=auto;html=1;exitX=1;exitY=0.5;exitDx=0;exitDy=0;exitPerimeter=0;endArrow=box;endFill=0;strokeWidth=2;fontSize=16;" edge="1" parent="1" source="hXAr0mRC2oCInIYDE2fe-3">
          <mxGeometry relative="1" as="geometry">
            <mxPoint x="940" y="249.8965517241379" as="targetPoint" />
          </mxGeometry>
        </mxCell>
        <mxCell id="hXAr0mRC2oCInIYDE2fe-3" value="" style="verticalLabelPosition=bottom;shadow=0;dashed=0;align=center;html=1;verticalAlign=top;shape=mxgraph.electrical.logic_gates.logic_gate;operation=or;strokeWidth=2;fontSize=16;" vertex="1" parent="1">
          <mxGeometry x="670" y="220" width="100" height="60" as="geometry" />
        </mxCell>
        <mxCell id="hXAr0mRC2oCInIYDE2fe-16" style="edgeStyle=orthogonalEdgeStyle;rounded=0;orthogonalLoop=1;jettySize=auto;html=1;exitX=0;exitY=0.25;exitDx=0;exitDy=0;exitPerimeter=0;endArrow=box;endFill=0;strokeWidth=2;fontSize=16;" edge="1" parent="1" source="hXAr0mRC2oCInIYDE2fe-4">
          <mxGeometry relative="1" as="geometry">
            <mxPoint x="380" y="334.72413793103453" as="targetPoint" />
          </mxGeometry>
        </mxCell>
        <mxCell id="hXAr0mRC2oCInIYDE2fe-17" style="edgeStyle=orthogonalEdgeStyle;rounded=0;orthogonalLoop=1;jettySize=auto;html=1;exitX=0;exitY=0.75;exitDx=0;exitDy=0;exitPerimeter=0;endArrow=box;endFill=0;strokeWidth=2;fontSize=16;" edge="1" parent="1" source="hXAr0mRC2oCInIYDE2fe-4">
          <mxGeometry relative="1" as="geometry">
            <mxPoint x="380" y="365.0689655172414" as="targetPoint" />
          </mxGeometry>
        </mxCell>
        <mxCell id="hXAr0mRC2oCInIYDE2fe-18" style="edgeStyle=orthogonalEdgeStyle;rounded=0;orthogonalLoop=1;jettySize=auto;html=1;exitX=1;exitY=0.5;exitDx=0;exitDy=0;exitPerimeter=0;endArrow=box;endFill=0;strokeWidth=2;fontSize=16;" edge="1" parent="1" source="hXAr0mRC2oCInIYDE2fe-4">
          <mxGeometry relative="1" as="geometry">
            <mxPoint x="940" y="349.8965517241379" as="targetPoint" />
          </mxGeometry>
        </mxCell>
        <mxCell id="hXAr0mRC2oCInIYDE2fe-4" value="" style="verticalLabelPosition=bottom;shadow=0;dashed=0;align=center;html=1;verticalAlign=top;shape=mxgraph.electrical.logic_gates.logic_gate;operation=and;strokeWidth=2;fontSize=16;" vertex="1" parent="1">
          <mxGeometry x="500" y="320" width="100" height="60" as="geometry" />
        </mxCell>
        <mxCell id="hXAr0mRC2oCInIYDE2fe-31" style="edgeStyle=orthogonalEdgeStyle;rounded=0;orthogonalLoop=1;jettySize=auto;html=1;exitX=0;exitY=0.21666666666666667;exitDx=0;exitDy=3;exitPerimeter=0;endArrow=box;endFill=0;strokeWidth=2;fontSize=16;" edge="1" parent="1" source="hXAr0mRC2oCInIYDE2fe-8">
          <mxGeometry relative="1" as="geometry">
            <mxPoint x="380" y="729.2068965517242" as="targetPoint" />
          </mxGeometry>
        </mxCell>
        <mxCell id="hXAr0mRC2oCInIYDE2fe-32" style="edgeStyle=orthogonalEdgeStyle;rounded=0;orthogonalLoop=1;jettySize=auto;html=1;exitX=0;exitY=0.65;exitDx=0;exitDy=3;exitPerimeter=0;endArrow=box;endFill=0;strokeWidth=2;fontSize=16;" edge="1" parent="1" source="hXAr0mRC2oCInIYDE2fe-8">
          <mxGeometry relative="1" as="geometry">
            <mxPoint x="380" y="780.9310344827586" as="targetPoint" />
          </mxGeometry>
        </mxCell>
        <mxCell id="hXAr0mRC2oCInIYDE2fe-33" style="edgeStyle=orthogonalEdgeStyle;rounded=0;orthogonalLoop=1;jettySize=auto;html=1;exitX=0.375;exitY=1;exitDx=10;exitDy=0;exitPerimeter=0;endArrow=box;endFill=0;strokeWidth=2;fontSize=16;" edge="1" parent="1" source="hXAr0mRC2oCInIYDE2fe-8">
          <mxGeometry relative="1" as="geometry">
            <mxPoint x="380" y="860" as="targetPoint" />
            <Array as="points">
              <mxPoint x="550" y="860" />
              <mxPoint x="380" y="860" />
            </Array>
          </mxGeometry>
        </mxCell>
        <mxCell id="hXAr0mRC2oCInIYDE2fe-34" style="edgeStyle=orthogonalEdgeStyle;rounded=0;orthogonalLoop=1;jettySize=auto;html=1;exitX=1;exitY=0.5;exitDx=0;exitDy=-5;exitPerimeter=0;endArrow=box;endFill=0;strokeWidth=2;fontSize=16;" edge="1" parent="1" source="hXAr0mRC2oCInIYDE2fe-8">
          <mxGeometry relative="1" as="geometry">
            <mxPoint x="940" y="755.3333333333335" as="targetPoint" />
          </mxGeometry>
        </mxCell>
        <mxCell id="hXAr0mRC2oCInIYDE2fe-8" value="Mux" style="shadow=0;dashed=0;align=center;html=1;strokeWidth=2;shape=mxgraph.electrical.abstract.mux2;whiteSpace=wrap;fontSize=16;" vertex="1" parent="1">
          <mxGeometry x="510" y="700" width="80" height="120" as="geometry" />
        </mxCell>
        <mxCell id="hXAr0mRC2oCInIYDE2fe-19" style="edgeStyle=orthogonalEdgeStyle;rounded=0;orthogonalLoop=1;jettySize=auto;html=1;exitX=0;exitY=0.25;exitDx=0;exitDy=0;exitPerimeter=0;endArrow=box;endFill=0;strokeWidth=2;fontSize=16;" edge="1" parent="1" source="hXAr0mRC2oCInIYDE2fe-22">
          <mxGeometry relative="1" as="geometry">
            <mxPoint x="380" y="424.72413793103453" as="targetPoint" />
          </mxGeometry>
        </mxCell>
        <mxCell id="hXAr0mRC2oCInIYDE2fe-20" style="edgeStyle=orthogonalEdgeStyle;rounded=0;orthogonalLoop=1;jettySize=auto;html=1;exitX=0;exitY=0.75;exitDx=0;exitDy=0;exitPerimeter=0;endArrow=box;endFill=0;strokeWidth=2;fontSize=16;" edge="1" parent="1" source="hXAr0mRC2oCInIYDE2fe-22">
          <mxGeometry relative="1" as="geometry">
            <mxPoint x="380" y="455.0689655172414" as="targetPoint" />
          </mxGeometry>
        </mxCell>
        <mxCell id="hXAr0mRC2oCInIYDE2fe-21" style="edgeStyle=orthogonalEdgeStyle;rounded=0;orthogonalLoop=1;jettySize=auto;html=1;exitX=1;exitY=0.5;exitDx=0;exitDy=0;exitPerimeter=0;endArrow=box;endFill=0;strokeWidth=2;fontSize=16;" edge="1" parent="1" source="hXAr0mRC2oCInIYDE2fe-22">
          <mxGeometry relative="1" as="geometry">
            <mxPoint x="940" y="439.8965517241379" as="targetPoint" />
          </mxGeometry>
        </mxCell>
        <mxCell id="hXAr0mRC2oCInIYDE2fe-22" value="" style="verticalLabelPosition=bottom;shadow=0;dashed=0;align=center;html=1;verticalAlign=top;shape=mxgraph.electrical.logic_gates.logic_gate;operation=and;strokeWidth=2;fontSize=16;" vertex="1" parent="1">
          <mxGeometry x="500" y="410" width="100" height="60" as="geometry" />
        </mxCell>
        <mxCell id="hXAr0mRC2oCInIYDE2fe-23" style="edgeStyle=orthogonalEdgeStyle;rounded=0;orthogonalLoop=1;jettySize=auto;html=1;exitX=0;exitY=0.25;exitDx=0;exitDy=0;exitPerimeter=0;endArrow=box;endFill=0;strokeWidth=2;fontSize=16;" edge="1" parent="1" source="hXAr0mRC2oCInIYDE2fe-26">
          <mxGeometry relative="1" as="geometry">
            <mxPoint x="380" y="514.7241379310345" as="targetPoint" />
          </mxGeometry>
        </mxCell>
        <mxCell id="hXAr0mRC2oCInIYDE2fe-24" style="edgeStyle=orthogonalEdgeStyle;rounded=0;orthogonalLoop=1;jettySize=auto;html=1;exitX=0;exitY=0.75;exitDx=0;exitDy=0;exitPerimeter=0;endArrow=box;endFill=0;strokeWidth=2;fontSize=16;" edge="1" parent="1" source="hXAr0mRC2oCInIYDE2fe-26">
          <mxGeometry relative="1" as="geometry">
            <mxPoint x="380" y="545.0689655172414" as="targetPoint" />
          </mxGeometry>
        </mxCell>
        <mxCell id="hXAr0mRC2oCInIYDE2fe-25" style="edgeStyle=orthogonalEdgeStyle;rounded=0;orthogonalLoop=1;jettySize=auto;html=1;exitX=1;exitY=0.5;exitDx=0;exitDy=0;exitPerimeter=0;endArrow=box;endFill=0;strokeWidth=2;fontSize=16;" edge="1" parent="1" source="hXAr0mRC2oCInIYDE2fe-26">
          <mxGeometry relative="1" as="geometry">
            <mxPoint x="940" y="529.8965517241379" as="targetPoint" />
          </mxGeometry>
        </mxCell>
        <mxCell id="hXAr0mRC2oCInIYDE2fe-26" value="" style="verticalLabelPosition=bottom;shadow=0;dashed=0;align=center;html=1;verticalAlign=top;shape=mxgraph.electrical.logic_gates.logic_gate;operation=and;strokeWidth=2;fontSize=16;" vertex="1" parent="1">
          <mxGeometry x="500" y="500" width="100" height="60" as="geometry" />
        </mxCell>
        <mxCell id="hXAr0mRC2oCInIYDE2fe-27" style="edgeStyle=orthogonalEdgeStyle;rounded=0;orthogonalLoop=1;jettySize=auto;html=1;exitX=0;exitY=0.25;exitDx=0;exitDy=0;exitPerimeter=0;endArrow=box;endFill=0;strokeWidth=2;fontSize=16;" edge="1" parent="1" source="hXAr0mRC2oCInIYDE2fe-30">
          <mxGeometry relative="1" as="geometry">
            <mxPoint x="380" y="604.7241379310345" as="targetPoint" />
          </mxGeometry>
        </mxCell>
        <mxCell id="hXAr0mRC2oCInIYDE2fe-28" style="edgeStyle=orthogonalEdgeStyle;rounded=0;orthogonalLoop=1;jettySize=auto;html=1;exitX=0;exitY=0.75;exitDx=0;exitDy=0;exitPerimeter=0;endArrow=box;endFill=0;strokeWidth=2;fontSize=16;" edge="1" parent="1" source="hXAr0mRC2oCInIYDE2fe-30">
          <mxGeometry relative="1" as="geometry">
            <mxPoint x="380" y="635.0689655172414" as="targetPoint" />
          </mxGeometry>
        </mxCell>
        <mxCell id="hXAr0mRC2oCInIYDE2fe-29" style="edgeStyle=orthogonalEdgeStyle;rounded=0;orthogonalLoop=1;jettySize=auto;html=1;exitX=1;exitY=0.5;exitDx=0;exitDy=0;exitPerimeter=0;endArrow=box;endFill=0;strokeWidth=2;fontSize=16;" edge="1" parent="1" source="hXAr0mRC2oCInIYDE2fe-30">
          <mxGeometry relative="1" as="geometry">
            <mxPoint x="940" y="619.8965517241379" as="targetPoint" />
          </mxGeometry>
        </mxCell>
        <mxCell id="hXAr0mRC2oCInIYDE2fe-30" value="" style="verticalLabelPosition=bottom;shadow=0;dashed=0;align=center;html=1;verticalAlign=top;shape=mxgraph.electrical.logic_gates.logic_gate;operation=and;strokeWidth=2;fontSize=16;" vertex="1" parent="1">
          <mxGeometry x="500" y="590" width="100" height="60" as="geometry" />
        </mxCell>
        <mxCell id="hXAr0mRC2oCInIYDE2fe-38" value="a" style="text;html=1;align=center;verticalAlign=middle;resizable=0;points=[];autosize=1;strokeColor=none;fillColor=none;strokeWidth=2;fontSize=16;" vertex="1" parent="1">
          <mxGeometry x="330" y="170" width="30" height="30" as="geometry" />
        </mxCell>
        <mxCell id="hXAr0mRC2oCInIYDE2fe-39" value="b" style="text;html=1;align=center;verticalAlign=middle;resizable=0;points=[];autosize=1;strokeColor=none;fillColor=none;strokeWidth=2;fontSize=16;" vertex="1" parent="1">
          <mxGeometry x="330" y="200" width="30" height="30" as="geometry" />
        </mxCell>
        <mxCell id="hXAr0mRC2oCInIYDE2fe-40" value="c" style="text;html=1;align=center;verticalAlign=middle;resizable=0;points=[];autosize=1;strokeColor=none;fillColor=none;strokeWidth=2;fontSize=16;" vertex="1" parent="1">
          <mxGeometry x="330" y="250" width="30" height="30" as="geometry" />
        </mxCell>
        <mxCell id="hXAr0mRC2oCInIYDE2fe-42" value="x [0]" style="text;html=1;align=center;verticalAlign=middle;resizable=0;points=[];autosize=1;strokeColor=none;fillColor=none;strokeWidth=2;fontSize=16;" vertex="1" parent="1">
          <mxGeometry x="320" y="320" width="50" height="30" as="geometry" />
        </mxCell>
        <mxCell id="hXAr0mRC2oCInIYDE2fe-43" value="y [0]" style="text;html=1;align=center;verticalAlign=middle;resizable=0;points=[];autosize=1;strokeColor=none;fillColor=none;strokeWidth=2;fontSize=16;" vertex="1" parent="1">
          <mxGeometry x="320" y="350" width="50" height="30" as="geometry" />
        </mxCell>
        <mxCell id="hXAr0mRC2oCInIYDE2fe-44" value="x [1]" style="text;html=1;align=center;verticalAlign=middle;resizable=0;points=[];autosize=1;strokeColor=none;fillColor=none;strokeWidth=2;fontSize=16;" vertex="1" parent="1">
          <mxGeometry x="320" y="410" width="50" height="30" as="geometry" />
        </mxCell>
        <mxCell id="hXAr0mRC2oCInIYDE2fe-45" value="y [1]" style="text;html=1;align=center;verticalAlign=middle;resizable=0;points=[];autosize=1;strokeColor=none;fillColor=none;strokeWidth=2;fontSize=16;" vertex="1" parent="1">
          <mxGeometry x="320" y="440" width="50" height="30" as="geometry" />
        </mxCell>
        <mxCell id="hXAr0mRC2oCInIYDE2fe-46" value="x [2]" style="text;html=1;align=center;verticalAlign=middle;resizable=0;points=[];autosize=1;strokeColor=none;fillColor=none;strokeWidth=2;fontSize=16;" vertex="1" parent="1">
          <mxGeometry x="320" y="500" width="50" height="30" as="geometry" />
        </mxCell>
        <mxCell id="hXAr0mRC2oCInIYDE2fe-47" value="y [2]" style="text;html=1;align=center;verticalAlign=middle;resizable=0;points=[];autosize=1;strokeColor=none;fillColor=none;strokeWidth=2;fontSize=16;" vertex="1" parent="1">
          <mxGeometry x="320" y="530" width="50" height="30" as="geometry" />
        </mxCell>
        <mxCell id="hXAr0mRC2oCInIYDE2fe-48" value="x [3]" style="text;html=1;align=center;verticalAlign=middle;resizable=0;points=[];autosize=1;strokeColor=none;fillColor=none;strokeWidth=2;fontSize=16;" vertex="1" parent="1">
          <mxGeometry x="320" y="590" width="50" height="30" as="geometry" />
        </mxCell>
        <mxCell id="hXAr0mRC2oCInIYDE2fe-49" value="y [3]" style="text;html=1;align=center;verticalAlign=middle;resizable=0;points=[];autosize=1;strokeColor=none;fillColor=none;strokeWidth=2;fontSize=16;" vertex="1" parent="1">
          <mxGeometry x="320" y="620" width="50" height="30" as="geometry" />
        </mxCell>
        <mxCell id="hXAr0mRC2oCInIYDE2fe-50" value="p" style="text;html=1;align=center;verticalAlign=middle;resizable=0;points=[];autosize=1;strokeColor=none;fillColor=none;strokeWidth=2;fontSize=16;" vertex="1" parent="1">
          <mxGeometry x="330" y="714" width="30" height="30" as="geometry" />
        </mxCell>
        <mxCell id="hXAr0mRC2oCInIYDE2fe-51" value="q" style="text;html=1;align=center;verticalAlign=middle;resizable=0;points=[];autosize=1;strokeColor=none;fillColor=none;strokeWidth=2;fontSize=16;" vertex="1" parent="1">
          <mxGeometry x="330" y="765" width="30" height="30" as="geometry" />
        </mxCell>
        <mxCell id="hXAr0mRC2oCInIYDE2fe-52" value="s" style="text;html=1;align=center;verticalAlign=middle;resizable=0;points=[];autosize=1;strokeColor=none;fillColor=none;strokeWidth=2;fontSize=16;" vertex="1" parent="1">
          <mxGeometry x="330" y="844" width="30" height="30" as="geometry" />
        </mxCell>
        <mxCell id="hXAr0mRC2oCInIYDE2fe-53" value="out 1" style="text;html=1;align=center;verticalAlign=middle;resizable=0;points=[];autosize=1;strokeColor=none;fillColor=none;strokeWidth=2;fontSize=16;" vertex="1" parent="1">
          <mxGeometry x="941" y="235" width="60" height="30" as="geometry" />
        </mxCell>
        <mxCell id="hXAr0mRC2oCInIYDE2fe-54" value="out 2[0]" style="text;html=1;align=center;verticalAlign=middle;resizable=0;points=[];autosize=1;strokeColor=none;fillColor=none;strokeWidth=2;fontSize=16;" vertex="1" parent="1">
          <mxGeometry x="936" y="335" width="80" height="30" as="geometry" />
        </mxCell>
        <mxCell id="hXAr0mRC2oCInIYDE2fe-55" value="out 2[1]" style="text;html=1;align=center;verticalAlign=middle;resizable=0;points=[];autosize=1;strokeColor=none;fillColor=none;strokeWidth=2;fontSize=16;" vertex="1" parent="1">
          <mxGeometry x="936" y="425" width="80" height="30" as="geometry" />
        </mxCell>
        <mxCell id="hXAr0mRC2oCInIYDE2fe-56" value="out 2[2]" style="text;html=1;align=center;verticalAlign=middle;resizable=0;points=[];autosize=1;strokeColor=none;fillColor=none;strokeWidth=2;fontSize=16;" vertex="1" parent="1">
          <mxGeometry x="936" y="515" width="80" height="30" as="geometry" />
        </mxCell>
        <mxCell id="hXAr0mRC2oCInIYDE2fe-57" value="out 2[3]" style="text;html=1;align=center;verticalAlign=middle;resizable=0;points=[];autosize=1;strokeColor=none;fillColor=none;strokeWidth=2;fontSize=16;" vertex="1" parent="1">
          <mxGeometry x="936" y="605" width="80" height="30" as="geometry" />
        </mxCell>
        <mxCell id="hXAr0mRC2oCInIYDE2fe-58" value="out 1" style="text;html=1;align=center;verticalAlign=middle;resizable=0;points=[];autosize=1;strokeColor=none;fillColor=none;strokeWidth=2;fontSize=16;" vertex="1" parent="1">
          <mxGeometry x="1635" y="1000" width="60" height="30" as="geometry" />
        </mxCell>
        <mxCell id="hXAr0mRC2oCInIYDE2fe-59" value="out 3" style="text;html=1;align=center;verticalAlign=middle;resizable=0;points=[];autosize=1;strokeColor=none;fillColor=none;strokeWidth=2;fontSize=16;" vertex="1" parent="1">
          <mxGeometry x="941" y="739" width="60" height="30" as="geometry" />
        </mxCell>
        <mxCell id="hXAr0mRC2oCInIYDE2fe-60" value="Fig 10.6 Synthesized circuit for the given verilog code (with assign statement)" style="text;html=1;align=center;verticalAlign=middle;resizable=0;points=[];autosize=1;strokeColor=none;fillColor=none;fontSize=25;" vertex="1" parent="1">
          <mxGeometry x="240" y="30" width="874" height="42" as="geometry" />
        </mxCell>
        <mxCell id="hXAr0mRC2oCInIYDE2fe-61" value="sel" style="text;html=1;align=center;verticalAlign=middle;resizable=0;points=[];autosize=1;strokeColor=none;fillColor=none;" vertex="1" parent="1">
          <mxGeometry x="534" y="780" width="33" height="26" as="geometry" />
        </mxCell>
        <mxCell id="hXAr0mRC2oCInIYDE2fe-64" value="top" style="text;html=1;align=center;verticalAlign=middle;resizable=0;points=[];autosize=1;strokeColor=none;fillColor=none;fontSize=25;" vertex="1" parent="1">
          <mxGeometry x="845" y="126" width="53" height="42" as="geometry" />
        </mxCell>
      </root>
    </mxGraphModel>
  </diagram>
</mxfile>
